<svg width="103" height="86" viewBox="0 0 103 86" fill="none" xmlns="http://www.w3.org/2000/svg">
<path d="M43.7545 53.73C43.8626 53.2407 43.9965 52.7824 44.1613 52.3498C44.2695 50.4649 45.7681 49.1722 47.3131 48.2401V41.4781C47.3131 40.3348 46.7466 39.3203 45.8814 38.7023C45.3252 38.3057 44.6454 38.0791 43.9141 38.0791C43.0335 38.0791 42.2301 38.4138 41.6275 38.9649C40.9426 39.588 40.5151 40.4842 40.5151 41.4781V66.5792C40.5151 68.4229 41.988 69.9215 43.8214 69.973C43.0026 68.2787 42.9202 66.3475 42.8481 64.339C42.7193 60.8112 42.9974 57.1805 43.7545 53.73Z" fill="#FEEB8F"/>
<path d="M78.2026 39.4952C77.6001 38.6506 76.6164 38.0996 75.5092 38.0738C74.8191 38.0584 74.1702 38.2592 73.6294 38.6043C72.6715 39.2223 72.0381 40.3038 72.0381 41.5295V48.9867C74.1599 52.0664 73.9436 57.3039 73.7994 59.4824C73.6603 61.563 73.6243 64.0401 73.5934 66.1259C73.5522 68.912 72.8518 70.6373 72.0381 72.7127V72.9445H78.8361V41.478C78.8412 40.7364 78.6043 40.0566 78.2026 39.4952Z" fill="#FEEB8F"/>
<path d="M47.6115 48.1061C50.1762 47.1482 53.0139 47.0246 55.7176 46.9113C55.7846 46.9062 55.8464 46.9319 55.8979 46.9731C55.6249 45.8968 55.3314 44.8256 55.3674 43.7132C54.1057 44.0788 52.5967 44.4599 51.7006 43.3115C50.9384 42.3381 50.8251 40.7416 50.4028 39.5623H45.8193V49.0743C46.3292 48.6881 46.9214 48.3636 47.6115 48.1061Z" fill="#FEEB8F"/>
<path d="M61.043 39.5623C60.8524 39.8764 60.6516 40.1854 60.4404 40.4893C60.7443 42.4411 61.1099 44.3878 61.3777 46.3448C61.4086 46.4015 61.4447 46.4633 61.4756 46.5199C62.6292 46.283 63.8034 46.6641 64.9158 46.6384C67.3054 46.659 71.2812 47.9156 72.0331 48.9868C74.4124 52.3755 73.6914 59.2971 73.5935 61.4498C73.4957 63.6025 73.4957 65.7552 73.2691 67.9027C73.0837 69.6383 72.5223 71.2863 71.7241 72.821H75.7411V39.5623H61.043Z" fill="#FEEB8F"/>
<path d="M72.5324 47.967C72.3933 47.967 72.2852 47.8589 72.2852 47.7198V40.3038C72.2852 40.1648 72.3933 40.0566 72.5324 40.0566C72.6714 40.0566 72.7796 40.1648 72.7796 40.3038V47.725C72.7796 47.8589 72.6714 47.967 72.5324 47.967Z" fill="white"/>
<path d="M46.6901 46.8546C46.551 46.8546 46.4429 46.7465 46.4429 46.6074V40.3038C46.4429 40.1648 46.551 40.0566 46.6901 40.0566C46.8291 40.0566 46.9373 40.1648 46.9373 40.3038V46.6074C46.9373 46.7465 46.8291 46.8546 46.6901 46.8546Z" fill="white"/>
<path d="M29.6075 22.5519C28.5775 22.0215 27.393 22.0524 26.4403 22.6292C25.1888 23.3914 23.6953 25.4359 23.6953 30.8486V50.6863C23.8704 50.6606 24.061 50.7069 24.1897 50.8305V30.8486C24.1897 25.6677 25.5545 23.7467 26.6926 23.0515C27.8565 22.3459 28.9586 22.7734 29.3758 22.9897C29.4994 23.0515 29.6487 23.0051 29.7105 22.8815C29.7775 22.763 29.726 22.6137 29.6075 22.5519Z" fill="#AAC5E7"/>
<path d="M43.9039 28.1756L35.6536 36.8791L31.1782 27.0426L33.8459 24.2307L43.9039 28.1756Z" fill="#AAC5E7"/>
<path d="M29.494 22.7733C29.1335 23.1544 28.9584 23.6436 28.9687 24.1277C28.979 24.6221 29.1798 25.1165 29.5661 25.4822L31.4664 27.2847L34.1032 24.5037L32.2029 22.7012C31.8372 22.351 31.3634 22.1759 30.8948 22.1759C30.3849 22.1707 29.8751 22.3716 29.494 22.7733Z" fill="#AAC5E7"/>
<path d="M30.9415 27.6296C30.8797 27.6296 30.8179 27.609 30.7715 27.5627C30.6737 27.47 30.6685 27.3103 30.7612 27.2125L34.0778 23.7156C34.1705 23.6178 34.3302 23.6126 34.428 23.7053C34.5259 23.798 34.531 23.9577 34.4383 24.0555L31.1217 27.5524C31.0754 27.6039 31.0084 27.6296 30.9415 27.6296Z" fill="white"/>
<path d="M31.7962 33.1762C31.7344 33.1762 31.6674 33.1504 31.6211 33.1041L28.8195 30.3025C28.7216 30.2046 28.7216 30.0501 28.8195 29.9523C28.9173 29.8544 29.0718 29.8544 29.1697 29.9523L31.9713 32.7539C32.0691 32.8517 32.0691 33.0062 31.9713 33.1041C31.9198 33.1556 31.858 33.1762 31.7962 33.1762Z" fill="#9E675E"/>
<path d="M28.9946 33.1762C28.9328 33.1762 28.8658 33.1504 28.8195 33.1041C28.7216 33.0062 28.7216 32.8517 28.8195 32.7539L31.6211 29.9523C31.7189 29.8544 31.8734 29.8544 31.9713 29.9523C32.0691 30.0501 32.0691 30.2046 31.9713 30.3025L29.1697 33.1041C29.1233 33.1556 29.0564 33.1762 28.9946 33.1762Z" fill="#9E675E"/>
<path d="M46.5976 67.98C46.1856 67.9079 45.7633 67.8718 45.3307 67.8718C44.5942 67.8718 43.8784 67.98 43.2089 68.1757C42.8278 68.289 42.457 68.428 42.1068 68.598C41.9265 68.6804 41.7514 68.7731 41.5815 68.8761C41.5454 68.8967 41.5094 68.9173 41.4733 68.943C39.9644 69.8443 38.7953 71.2605 38.2134 72.9446H38.7387C39.2743 71.518 40.2579 70.3129 41.5197 69.4941C41.633 69.422 41.7463 69.3499 41.8647 69.2829C41.9265 69.2469 41.9883 69.216 42.0501 69.1799C42.457 68.9636 42.8844 68.7885 43.3325 68.6546C43.9711 68.4641 44.6406 68.3662 45.341 68.3662C45.8354 68.3662 46.3195 68.4177 46.7881 68.5156L46.5976 67.98Z" fill="white"/>
<path d="M36.3951 47.9671C36.1067 47.4727 35.8183 46.9783 35.5299 46.4839C35.3703 46.2109 34.9428 46.4581 35.1025 46.7311C35.3909 47.2255 35.6793 47.7199 35.9677 48.2143C36.1273 48.4924 36.5548 48.2452 36.3951 47.9671Z" fill="#AAC5E7"/>
<path d="M45.7735 22.6961C45.5263 22.9845 45.2791 23.2729 45.0319 23.5613C44.8259 23.8034 45.1761 24.1536 45.3821 23.9115C45.6293 23.6231 45.8765 23.3347 46.1237 23.0463C46.3297 22.8043 45.9847 22.4541 45.7735 22.6961Z" fill="#AAC5E7"/>
<path d="M71.7034 34.9839C71.3738 35.4783 71.0442 35.9727 70.7146 36.4671C70.5395 36.7349 70.967 36.9821 71.1421 36.7143C71.4717 36.2199 71.8013 35.7255 72.1309 35.2311C72.306 34.9685 71.8785 34.7213 71.7034 34.9839Z" fill="#AAC5E7"/>
<path d="M72.5686 35.8493C72.4038 36.1789 72.239 36.5085 72.0742 36.8381C71.93 37.1213 72.3575 37.3737 72.5017 37.0853C72.6665 36.7557 72.8313 36.4261 72.9961 36.0965C73.1351 35.8184 72.7077 35.566 72.5686 35.8493Z" fill="#AAC5E7"/>
<path d="M20.9763 38.697C20.2244 38.697 19.6167 39.3099 19.6167 40.0566C19.6167 40.8034 20.2295 41.4162 20.9763 41.4162C21.723 41.4162 22.3359 40.8085 22.3359 40.0566C22.3359 39.3047 21.723 38.697 20.9763 38.697ZM20.9763 40.9218C20.4973 40.9218 20.1111 40.5356 20.1111 40.0566C20.1111 39.5777 20.4973 39.1914 20.9763 39.1914C21.4552 39.1914 21.8415 39.5777 21.8415 40.0566C21.8415 40.5304 21.4501 40.9218 20.9763 40.9218Z" fill="#FEEB8F"/>
<path d="M59.9921 31.0597C60.0281 30.9515 60.0796 30.864 60.1517 30.8022C58.8385 29.0924 56.9793 27.9079 55.4292 27.3053C53.9975 26.7491 52.6945 26.6204 51.9529 26.9654C51.3916 27.2229 51.1032 27.5525 51.0929 27.9439C51.0877 28.083 51.1238 28.2117 51.1753 28.3353C50.1041 27.9439 48.59 27.5474 47.5909 27.9388C47.1428 28.1139 46.8338 28.428 46.669 28.8658C46.4218 29.525 46.4218 30.5086 47.7505 31.5386C47.6166 31.7807 47.5445 32.1257 47.6218 32.4914C47.7299 32.9858 48.1574 33.6862 49.5788 34.196C49.6045 34.2063 49.6354 34.2115 49.6612 34.2115C49.7642 34.2115 49.8569 34.1497 49.8929 34.0467C49.9393 33.9179 49.8723 33.7789 49.7436 33.7325C48.5333 33.2999 48.1831 32.7643 48.1007 32.3884C48.0286 32.0485 48.1625 31.7652 48.2604 31.6674C48.3119 31.6159 48.3376 31.5438 48.3325 31.4717C48.3273 31.3996 48.2913 31.3326 48.2295 31.2914C47.2098 30.5653 46.839 29.8134 47.1222 29.046C47.2355 28.737 47.4467 28.5259 47.7608 28.4023C49.2131 27.8306 52.1795 29.2984 52.2053 29.3138C52.3289 29.3756 52.4731 29.3241 52.5349 29.2057C52.5967 29.0872 52.5503 28.9379 52.4319 28.8761C52.1486 28.7216 51.5615 28.2993 51.5718 27.9594C51.577 27.7276 51.8911 27.5371 52.1486 27.4186C52.7666 27.1354 53.9511 27.2693 55.2386 27.774C56.7939 28.3765 58.6788 29.5971 59.9303 31.3584C59.9457 31.2502 59.9612 31.1575 59.9921 31.0597Z" fill="black"/>
<path d="M61.2798 46.8134C61.1562 46.8134 61.0532 46.7259 61.0326 46.6023C60.5845 43.3423 60.2343 40.5407 60.2292 40.5098C60.2189 40.4429 60.2395 40.3708 60.2858 40.3193C61.2231 39.212 60.8678 36.9821 60.8678 36.9615C60.8472 36.8482 60.9141 36.7349 61.0223 36.6937C62.6342 36.0654 63.9114 34.8706 64.2719 33.65C64.5037 32.8724 64.3646 32.1205 63.8599 31.4149C63.4994 30.9102 63.0411 30.6115 62.5055 30.5343C61.7896 30.4313 60.909 30.7197 60.1416 31.3119C60.0335 31.3943 59.879 31.3737 59.7966 31.2656C59.7142 31.1574 59.7348 31.0029 59.8429 30.9205C60.2601 30.5961 61.3673 29.8648 62.5827 30.045C63.2574 30.1429 63.8239 30.5085 64.2668 31.1265C64.859 31.9505 65.0238 32.8724 64.7509 33.7891C64.3646 35.1023 63.0514 36.3744 61.3879 37.0799C61.4549 37.6773 61.5785 39.4644 60.739 40.551C60.806 41.0866 61.1253 43.6256 61.527 46.5302C61.5476 46.6641 61.4497 46.7877 61.3158 46.8083C61.3055 46.8134 61.2952 46.8134 61.2798 46.8134Z" fill="black"/>
<path d="M61.5266 46.5355C61.5266 46.5355 61.5266 46.5304 61.5266 46.5252C61.5266 46.5201 61.5266 46.5149 61.5215 46.5098C61.506 46.4428 61.4648 46.3862 61.403 46.3553C61.3927 46.3501 61.3876 46.345 61.3773 46.3398C61.3721 46.3398 61.367 46.3347 61.3618 46.3347C61.3258 46.3244 61.2949 46.3192 61.264 46.3192C61.2588 46.3192 61.2537 46.3192 61.2485 46.3192C61.1558 46.3295 61.0786 46.3913 61.0477 46.484C61.0425 46.5046 61.0374 46.5201 61.0271 46.5355C60.5945 47.6994 59.1422 48.6573 57.8856 48.5904C57.2779 48.5595 56.4899 48.2659 56.2221 47.0711L55.5732 44.0738L55.532 43.8781C55.5166 43.8112 55.4754 43.7545 55.4187 43.7185C55.3621 43.6824 55.29 43.6721 55.2282 43.6876C55.223 43.6876 55.2127 43.6927 55.2076 43.6927C54.3475 43.9142 53.6162 44.0017 52.9519 43.8009H52.9467C52.5193 43.667 52.1279 43.4146 51.7468 42.9923C51.412 42.6164 51.1597 42.0087 50.9588 41.2465C50.897 41.0199 50.8455 40.783 50.794 40.5306C50.8455 40.5152 50.8919 40.4791 50.9279 40.4328C51.515 39.5521 52.5347 38.7333 55.6144 39.3822C56.9843 39.6706 58.0092 39.8251 58.6426 39.1865C59.513 38.3161 59.4151 36.0759 58.3027 30.9259C58.2873 30.8538 58.2358 30.792 58.1688 30.7559C58.1225 30.7302 56.9483 30.1534 55.0634 30.0195C52.2154 29.8135 50.2687 30.9619 49.7125 33.1713C49.6713 33.3309 49.6404 33.4957 49.6147 33.6708C49.5889 33.8356 49.5735 34.0056 49.5632 34.1755C49.558 34.2888 49.6507 34.3867 49.764 34.3867H49.8567C49.9649 34.3867 50.0524 34.3043 50.0576 34.1961C50.0782 33.8665 50.1245 33.5627 50.1915 33.2846C50.6498 31.4666 52.133 30.483 54.4042 30.483C54.605 30.483 54.811 30.4881 55.0273 30.5036C56.5002 30.6117 57.5251 31.0031 57.8444 31.1422C58.8692 35.8905 58.998 38.1204 58.2924 38.826C57.8341 39.2843 56.8968 39.135 55.7174 38.8826C54.5947 38.6457 53.7141 38.5994 53.0188 38.6766C52.8077 38.7024 52.612 38.7333 52.4317 38.7796C51.5614 38.9959 51.0412 39.4388 50.6859 39.9075C50.5365 39.0423 50.4181 38.0792 50.2945 37.0904C50.2945 37.075 50.2893 37.0647 50.2893 37.0492C50.279 36.9668 50.2687 36.8896 50.2584 36.8072C50.0679 36.7969 49.8876 36.7299 49.7383 36.6115C49.7383 36.6218 49.7434 36.6372 49.7434 36.6475C49.7537 36.7402 49.764 36.8278 49.7795 36.9205C49.7846 36.9823 49.7949 37.0441 49.8052 37.111C49.9082 37.9453 50.0112 38.7693 50.1297 39.5367C50.3872 41.1898 50.7374 42.5855 51.3863 43.3065C52.4575 44.4961 53.6574 44.5528 55.1046 44.2129L55.6814 46.8703L55.6865 46.8857L55.702 46.963L55.7432 47.1587C55.7586 47.2256 55.7741 47.2926 55.7947 47.3595C55.8771 47.6376 55.9904 47.8848 56.1294 48.096C56.4384 48.5646 56.8865 48.8788 57.4427 49.0024C57.5766 49.0333 57.7156 49.0539 57.8598 49.059C57.9113 49.0642 57.9628 49.0642 58.0143 49.0642C58.0761 49.0642 58.1328 49.0642 58.1946 49.059C59.0443 49.0075 59.9147 48.6058 60.5739 48.0033C61.0013 47.6119 61.3361 47.1381 61.5112 46.6282C61.5112 46.6231 61.5163 46.6231 61.5163 46.6179C61.5163 46.6128 61.5215 46.6076 61.5215 46.6025C61.5215 46.5973 61.5266 46.587 61.5266 46.5819C61.5266 46.5767 61.5266 46.5716 61.5266 46.5664C61.5266 46.5613 61.5266 46.5561 61.5266 46.551C61.5266 46.5407 61.5266 46.5252 61.5266 46.5149C61.5266 46.5458 61.5266 46.5407 61.5266 46.5355Z" fill="black"/>
<path d="M52.8031 39.0577C52.7465 39.0577 52.6898 39.0371 52.6435 39.001C51.3405 37.8938 51.5465 36.2509 52.3396 33.7789C52.3808 33.6502 52.5199 33.5781 52.6486 33.6193C52.7774 33.6605 52.8495 33.7995 52.8083 33.9283C51.9585 36.5754 51.9997 37.8062 52.9628 38.6199C53.0658 38.7075 53.0812 38.862 52.9885 38.9701C52.9473 39.0268 52.8752 39.0577 52.8031 39.0577Z" fill="black"/>
<path d="M55.0559 35.7116C55.227 35.6343 55.3031 35.433 55.2258 35.2619C55.1485 35.0908 54.9472 35.0148 54.7761 35.092C54.605 35.1693 54.5289 35.3706 54.6062 35.5417C54.6835 35.7128 54.8848 35.7889 55.0559 35.7116Z" fill="black"/>
<path d="M54.5951 41.4267C55.2852 41.3134 55.6869 40.6284 55.4242 39.9744C55.2955 39.6499 55.7899 39.4233 55.9186 39.7529C56.31 40.7366 55.7332 41.7923 54.6775 41.9674C54.3376 42.0189 54.25 41.4833 54.5951 41.4267Z" fill="black"/>
<path d="M53.8584 33.5574C53.8739 33.4029 54.0077 33.3102 54.1571 33.3154C54.3064 33.3205 54.461 33.3257 54.6103 33.3308C54.7545 33.336 54.8678 33.4905 54.8523 33.6295C54.8369 33.784 54.703 33.8767 54.5537 33.8716C54.4043 33.8664 54.2498 33.8613 54.1005 33.8561C53.9511 33.851 53.843 33.6913 53.8584 33.5574Z" fill="black"/>
<path d="M49.6305 34.0931L49.9395 33.9541C50.2588 33.8099 50.4802 34.3043 50.1609 34.4485L49.8519 34.5875C49.5378 34.7317 49.3112 34.2373 49.6305 34.0931Z" fill="black"/>
<path d="M61.2801 34.5823C61.2749 34.5823 61.2749 34.5823 61.2698 34.5823C61.1359 34.5772 61.0277 34.4639 61.0329 34.3248C61.0586 33.6141 61.8311 32.0846 62.9538 31.8219C63.0877 31.791 63.2216 31.8734 63.2525 32.0073C63.2834 32.1412 63.201 32.2751 63.0671 32.306C62.1813 32.512 61.5479 33.8562 61.5273 34.3454C61.517 34.4793 61.4088 34.5823 61.2801 34.5823Z" fill="black"/>
<path d="M55.2955 44.1819C55.2028 44.1819 55.1101 44.1304 55.0689 44.0377C55.0123 43.9141 55.0689 43.7647 55.1925 43.7081C57.5512 42.6369 59.1271 41.5914 60.2962 40.3091C60.3889 40.2061 60.5434 40.2009 60.6464 40.2936C60.7494 40.3863 60.7545 40.5408 60.6618 40.6438C59.4413 41.9777 57.8139 43.0592 55.3934 44.1561C55.3625 44.1767 55.3316 44.1819 55.2955 44.1819Z" fill="black"/>
<path d="M61.1151 37.1674C61.0018 37.1674 60.8988 37.0902 60.8731 36.9717C60.5641 35.5143 59.7504 31.2037 59.7452 31.1574C59.7195 31.0235 59.807 30.8947 59.9409 30.869C60.0748 30.8432 60.2036 30.9308 60.2293 31.0647C60.2396 31.1059 61.0482 35.4113 61.3572 36.8687C61.3829 37.0026 61.3005 37.1314 61.1666 37.1623C61.1512 37.1674 61.1357 37.1674 61.1151 37.1674Z" fill="black"/>
<path d="M51.912 34.8347C51.8708 34.8862 51.8502 34.948 51.8553 35.015C51.8965 35.4218 51.7523 35.8699 51.4794 36.1892C51.33 36.3643 51.0674 36.5806 50.6914 36.6012C50.3979 36.6166 50.1146 36.5033 49.9035 36.287C49.6408 36.0192 49.5121 35.6124 49.5481 35.1798C49.5584 35.0459 49.4606 34.9223 49.3215 34.912C49.1825 34.8965 49.064 34.9995 49.0537 35.1386C49.0074 35.7154 49.1825 36.2561 49.543 36.6321C49.8365 36.9359 50.2228 37.1007 50.6348 37.1007C50.6605 37.1007 50.6863 37.1007 50.712 37.1007C51.1446 37.0801 51.5463 36.8741 51.8502 36.5188C52.1592 36.1634 52.3394 35.6742 52.3549 35.2055C52.2055 35.0871 52.0613 34.9635 51.912 34.8347Z" fill="black"/>
<path d="M56.6599 34.8706C56.6445 34.7367 56.526 34.6389 56.387 34.6492C56.2531 34.6646 56.1501 34.7831 56.1655 34.9221C56.2067 35.3496 56.078 35.777 55.8153 36.0654C55.5784 36.3281 55.2488 36.462 54.8471 36.462C54.1982 36.462 53.7759 35.9418 53.7759 35.1436C53.7759 35.0457 53.7141 34.953 53.6214 34.917C53.0395 34.6749 52.1691 34.608 51.9116 34.8346L52.1846 35.2105C52.4318 35.1693 52.818 35.1539 53.2867 35.3135C53.3536 36.2869 53.9768 36.9564 54.8471 36.9564C55.3879 36.9564 55.8514 36.7607 56.181 36.395C56.5363 36.0036 56.7166 35.432 56.6599 34.8706Z" fill="black"/>
<path d="M50.6985 36.1655C50.8696 36.0882 50.9456 35.8869 50.8684 35.7158C50.7911 35.5447 50.5898 35.4686 50.4187 35.5459C50.2476 35.6232 50.1715 35.8245 50.2488 35.9956C50.3261 36.1667 50.5274 36.2427 50.6985 36.1655Z" fill="black"/>
<path d="M41.4989 72.6151C41.4937 72.6151 41.4886 72.6151 41.4834 72.6151C41.3495 72.6048 41.2414 72.4915 41.2517 72.3524C41.2517 72.3267 41.4319 69.4221 42.7349 58.983L42.8224 58.2981C44.0533 48.4255 44.1769 47.3904 55.9755 46.8857C56.1094 46.8754 56.2279 46.9835 56.233 47.1226C56.2382 47.2565 56.1352 47.3749 55.9961 47.3801C44.6198 47.8693 44.5477 48.4616 43.3117 58.3599L43.2241 59.05C41.9212 69.4736 41.7461 72.3576 41.7409 72.3885C41.7409 72.5121 41.6276 72.6151 41.4989 72.6151Z" fill="black"/>
<path d="M47.9981 56.753L48.0548 52.669C48.0548 52.53 47.9466 52.4218 47.8127 52.4167C47.6788 52.4115 47.5655 52.5248 47.5604 52.6587L47.4883 56.8302C47.6479 56.7324 47.8282 56.8354 47.9981 56.753Z" fill="black"/>
<path d="M47.406 61.4602L47.3081 67.1252C47.3081 67.2643 47.4163 67.3724 47.5502 67.3776H47.5553C47.6892 67.3776 47.8025 67.2694 47.8025 67.1355L47.8952 61.7898C47.7304 61.6868 47.5656 61.5787 47.406 61.4602Z" fill="black"/>
<path d="M59.1375 51.6751C59.0499 51.6751 58.9623 51.6287 58.916 51.5412L57.7985 49.3885L56.547 51.397C56.4749 51.5154 56.3204 51.5463 56.2071 51.4742C56.0887 51.4021 56.0578 51.2476 56.1299 51.1343L57.613 48.7653C57.6594 48.6881 57.7418 48.6417 57.8345 48.6469C57.922 48.652 58.0044 48.7035 58.0456 48.7808L59.364 51.3146C59.4258 51.4382 59.3795 51.5875 59.261 51.6493C59.2147 51.6699 59.1787 51.6751 59.1375 51.6751Z" fill="black"/>
<path d="M56.7529 56.3255C56.7684 56.4337 56.8508 56.5212 56.9589 56.5367C57.0671 56.5521 57.1752 56.4955 57.2216 56.3976L61.733 46.7259C61.6815 46.5302 61.5476 46.5148 61.4858 46.3242C61.4085 46.3397 61.3416 46.3912 61.3055 46.4633L57.1289 55.4294L56.0062 47.1946C55.9856 47.0607 55.862 46.9628 55.7281 46.9834C55.5942 47.004 55.4963 47.1276 55.5169 47.2615L56.7529 56.3255Z" fill="black"/>
<path d="M45.7224 60.4612C45.331 60.8269 44.7078 61.723 44.1156 61.4088L43.4203 62.2586C43.2452 62.4697 43.2761 62.7839 43.4873 62.9538C43.5954 63.0465 43.7345 63.0774 43.8632 63.062C43.9817 63.0465 44.1001 62.9847 44.1825 62.8869L47.0356 59.4158C46.5464 59.6733 46.1189 60.0904 45.7224 60.4612Z" fill="black"/>
<path d="M51.14 53.6528C50.9289 53.4777 50.6147 53.5085 50.4448 53.7197L47.9985 56.65C48.5341 56.4749 48.8586 56.6037 49.4148 56.5213L51.207 54.348C51.3821 54.1369 51.3512 53.8227 51.14 53.6528Z" fill="black"/>
<path d="M68.1246 65.8531C68.0731 65.8531 68.0216 65.8376 67.9804 65.8067C65.6062 64.0969 62.0733 61.8927 60.173 60.7134C50.7794 54.8578 47.4319 57.371 47.3031 57.4431C45.6551 58.3598 44.244 60.4198 44.2646 61.1769C44.2698 61.2953 44.3058 61.3108 44.3213 61.3159C44.5736 61.5425 45.4543 60.4816 45.686 60.1932C45.753 60.1108 45.8148 60.0284 45.8714 59.9615C47.3598 58.3753 48.0962 58.6482 48.1529 58.6328C48.2868 58.5916 47.8593 58.8491 47.8954 58.9778C47.9366 59.1066 47.8954 59.0808 47.7666 59.122C47.7563 59.1272 46.819 59.395 46.2628 60.0645C46.2062 60.1314 46.1444 60.2087 46.0774 60.2911C45.4028 61.1305 44.553 61.9803 44.0998 61.7588C43.9814 61.7022 43.7754 61.5477 43.7651 61.1872C43.7342 60.1778 45.3255 57.9684 47.0559 57.0054C47.1538 56.9487 50.7433 54.2553 60.415 60.2859C62.3257 61.4807 65.874 63.6901 68.2585 65.405C68.3718 65.4823 68.3924 65.6368 68.3151 65.7501C68.2791 65.817 68.2018 65.8531 68.1246 65.8531Z" fill="black"/>
<path d="M47.6946 61.8C47.674 61.8 47.6534 61.7948 47.6328 61.7897C46.7573 61.5579 46.5152 61.1253 46.4637 60.8009C46.3504 60.0799 47.1075 59.1786 48.6422 58.2053C48.7555 58.1332 48.91 58.1641 48.9821 58.2825C49.0542 58.3958 49.0233 58.5503 48.9048 58.6224C46.9787 59.843 46.9221 60.5382 46.953 60.7236C46.9993 61.0429 47.4216 61.218 47.7615 61.3056C47.8954 61.3416 47.9727 61.4755 47.9366 61.6094C47.9057 61.7279 47.8027 61.8 47.6946 61.8Z" fill="black"/>
<path d="M48.8022 62.8354C48.7919 62.8354 48.7764 62.8354 48.7661 62.8302C48.1687 62.7375 47.7722 62.4182 47.6743 61.9547C47.5044 61.141 48.2666 60.111 49.7137 59.1943C49.827 59.1222 49.9815 59.1531 50.0536 59.2716C50.1257 59.3849 50.0948 59.5394 49.9764 59.6115C48.4829 60.5591 48.0657 61.4088 48.1584 61.8517C48.2305 62.1968 48.6168 62.3101 48.8434 62.341C48.9773 62.3616 49.07 62.4852 49.0494 62.6242C49.0288 62.7478 48.9206 62.8354 48.8022 62.8354Z" fill="black"/>
<path d="M50.2694 63.994C50.1406 63.994 49.9861 63.9631 49.8162 63.8652C49.1673 63.5047 48.848 63.0979 48.8325 62.6241C48.8119 61.9649 49.4351 61.2439 50.7277 60.425C50.841 60.3529 50.9955 60.3838 51.0676 60.5023C51.1397 60.6156 51.1088 60.7701 50.9904 60.8422C49.5999 61.7228 49.3166 62.2893 49.3269 62.6138C49.3372 62.897 49.5741 63.1648 50.0582 63.4378C50.2333 63.5356 50.3312 63.4996 50.3621 63.4841C50.5475 63.4172 50.6762 63.1597 50.7071 63.067C50.7535 62.9382 50.8977 62.8713 51.0264 62.9228C51.1552 62.9691 51.2221 63.1082 51.1758 63.2369C51.1552 63.2936 50.9646 63.788 50.5372 63.9476C50.4651 63.9734 50.3775 63.994 50.2694 63.994Z" fill="black"/>
<path d="M71.9923 48.6316C70.2464 46.8806 67.1204 46.1905 61.5223 46.3193C61.4811 46.3193 61.4451 46.3296 61.409 46.3502C61.5017 46.5047 61.3215 46.6437 61.4193 46.7982L61.6871 46.8137C67.0328 46.7004 70.0147 47.3544 71.6421 48.9818C73.6815 51.0315 73.5836 54.7189 73.4343 60.3015C73.3982 61.5993 73.3622 62.9435 73.3467 64.4164C73.2952 69.3913 72.4146 72.4349 70.7357 73.4701C69.7057 74.1035 68.377 74.0005 66.6775 73.1662C63.3197 71.5131 55.6101 65.3794 53.8797 63.9529C53.7664 63.8602 53.6531 63.7675 53.5501 63.6748C52.5047 62.7941 51.6807 62.104 50.4189 62.5881C50.2902 62.6396 50.2284 62.7787 50.2799 62.9074C50.3314 63.0362 50.4704 63.098 50.5992 63.0465C51.588 62.6654 52.206 63.1855 53.236 64.0507C53.3441 64.1434 53.4574 64.2361 53.5707 64.3288C53.6583 64.4009 62.5678 71.6882 66.4612 73.604C67.4912 74.1087 68.4182 74.361 69.2422 74.361C69.8962 74.361 70.4782 74.2014 70.9983 73.8872C72.8626 72.7439 73.7896 69.6436 73.8463 64.4164C73.8617 62.9486 73.8978 61.6045 73.9338 60.3067C74.078 54.6005 74.181 50.8307 71.9923 48.6316Z" fill="black"/>
<path d="M44.4966 59.9462C44.3885 59.9462 44.2855 59.8741 44.2597 59.7608C44.1001 59.1634 44.2237 58.53 44.5945 58.0304C45.0631 57.4021 45.882 57.0416 46.9017 57.0107H46.9068C47.0407 57.0107 47.1489 57.1189 47.154 57.2528C47.1592 57.3867 47.051 57.5051 46.912 57.5051C45.8047 57.536 45.2537 57.9686 44.991 58.324C44.7078 58.7051 44.6151 59.1789 44.7335 59.6321C44.7696 59.766 44.6923 59.8999 44.5584 59.9359C44.5378 59.9462 44.5172 59.9462 44.4966 59.9462Z" fill="black"/>
<path d="M66.7238 64.7819C66.5847 64.7819 66.4766 64.6738 66.4766 64.5347V55.548C66.4766 55.4089 66.5847 55.3008 66.7238 55.3008C66.8628 55.3008 66.971 55.4089 66.971 55.548V64.5347C66.971 64.6738 66.8577 64.7819 66.7238 64.7819Z" fill="black"/>
<path d="M55.1831 65.5236C55.1007 65.5236 55.0183 65.4824 54.9719 65.4051C54.8998 65.2867 54.941 65.1373 55.0543 65.0652C55.8783 64.5708 57.7478 62.4799 57.9023 59.4929C57.9074 59.359 58.0207 59.2509 58.1649 59.2612C58.2988 59.2663 58.407 59.3848 58.3967 59.5238C58.2319 62.7065 56.2079 64.9571 55.3118 65.4927C55.2706 65.5133 55.2243 65.5236 55.1831 65.5236Z" fill="black"/>
<path d="M48.2607 72.9446H33.4235L27.8203 56.1814H42.6575L42.9716 57.1238L43.1158 57.5564L43.3321 58.2105L44.0222 60.2653L44.0325 60.3014L44.1355 60.6052L44.2746 61.0327L44.3673 61.3005L44.4085 61.4344L44.4806 61.6404L44.5218 61.7588L46.5972 67.98L46.7775 68.5208L48.2607 72.9446Z" fill="#9E675E"/>
<path d="M33.4236 72.9446L32.6099 72.2184L31.9147 71.5953L25.9201 66.2496L20.3169 49.4915L27.8204 56.1813L33.4236 72.9446Z" fill="#9E675E"/>
<path d="M32.61 72.2185L31.9096 71.5953L26.7596 55.929C26.7184 55.8003 26.7854 55.6612 26.9193 55.6149C27.048 55.5737 27.1871 55.6458 27.2334 55.7745L32.61 72.2185Z" fill="white"/>
<path d="M35.1179 72.9446H34.6081L29.3036 56.8045C29.2624 56.6757 29.3345 56.5367 29.4632 56.4903C29.592 56.4491 29.731 56.5161 29.7774 56.65L35.1076 72.8673C35.1128 72.8931 35.1179 72.9188 35.1179 72.9446Z" fill="white"/>
<path d="M28.3867 55.7796C28.3764 55.7796 28.3661 55.7796 28.3507 55.7796C28.2168 55.759 28.1189 55.6354 28.1395 55.5015C28.4331 53.3694 26.1001 51.778 24.344 51.3248C22.32 50.8047 21.7844 49.2494 21.7587 49.1876C21.7175 49.0588 21.7844 48.9198 21.9132 48.8734C22.0419 48.8322 22.181 48.8992 22.2273 49.0279C22.2479 49.0846 22.7114 50.3927 24.4676 50.8459C26.3988 51.3454 28.9635 53.1376 28.6288 55.5684C28.6185 55.6869 28.5103 55.7796 28.3867 55.7796Z" fill="black"/>
<path d="M29.1958 55.6561C29.1185 55.6561 29.0464 55.62 28.9949 55.5531C28.9125 55.4449 28.9383 55.2904 29.0464 55.208C29.1134 55.1565 30.7717 53.9823 34.2222 54.2965C36.7714 54.5282 40.6339 54.8681 41.6433 54.9557C41.7772 54.966 41.8802 55.0896 41.8699 55.2235C41.8596 55.3574 41.736 55.4604 41.6021 55.4501C40.5979 55.3625 36.7354 55.0226 34.181 54.7909C30.9107 54.4922 29.3554 55.5994 29.34 55.6097C29.2936 55.6406 29.2421 55.6561 29.1958 55.6561Z" fill="black"/>
<path d="M22.9842 60.0541C24.6837 61.0377 25.0905 61.357 24.8227 61.7999C24.5549 62.2428 22.8039 61.5991 22.1859 60.6257C21.5679 59.6524 21.9696 58.9932 21.9696 58.9932L22.9842 60.0541Z" fill="white"/>
<path d="M24.4624 62.1864C23.7311 62.1864 22.4951 61.5684 21.9801 60.7547C21.29 59.668 21.738 58.8955 21.7586 58.8595C21.8307 58.741 21.9801 58.705 22.0985 58.7771C22.217 58.8492 22.253 58.9985 22.1809 59.117C22.1706 59.1376 21.8771 59.6732 22.3972 60.492C22.7732 61.0843 23.6796 61.5838 24.2924 61.6765C24.5036 61.7074 24.6014 61.6765 24.6169 61.6611C24.6632 61.5838 24.6529 61.5529 24.6478 61.5323C24.5808 61.2748 23.762 60.7856 22.8607 60.2603C22.7423 60.1933 22.7011 60.0388 22.7732 59.9204C22.8401 59.8019 22.9946 59.7607 23.1131 59.8328C24.5345 60.6568 25.0289 61.0019 25.1319 61.4087C25.1731 61.5735 25.1422 61.7486 25.0392 61.9186C24.9671 62.037 24.8126 62.1761 24.4778 62.1812C24.4727 62.1864 24.4675 62.1864 24.4624 62.1864Z" fill="black"/>
<path d="M22.7374 58.3854C24.7459 59.8892 25.2145 60.3578 24.8128 60.878C24.4111 61.3981 22.279 60.3218 21.6456 58.9931C21.007 57.6695 21.6147 56.8867 21.6147 56.8867L22.7374 58.3854Z" fill="white"/>
<path d="M24.4523 61.2594C24.4111 61.2594 24.3648 61.2594 24.3133 61.2491C23.4069 61.1512 21.9391 60.1933 21.4138 59.0964C20.7186 57.6492 21.3829 56.7686 21.4087 56.7325C21.4911 56.6244 21.6456 56.6038 21.7537 56.6913C21.8619 56.7737 21.8825 56.9282 21.7949 57.0364C21.7743 57.0621 21.3005 57.7265 21.8567 58.8852C22.3305 59.8689 23.6798 60.6877 24.3596 60.7598C24.5244 60.7753 24.5914 60.7444 24.6068 60.7289C24.6892 60.6259 24.6892 60.5641 24.6841 60.5178C24.6326 60.1573 23.7004 59.4311 22.5777 58.5865C22.4696 58.5041 22.4438 58.3496 22.5262 58.2415C22.6086 58.1333 22.7631 58.1076 22.8713 58.19C24.509 59.4157 25.1012 59.941 25.1682 60.4508C25.1939 60.6517 25.1373 60.8422 24.9879 61.0328C24.921 61.1358 24.7562 61.2594 24.4523 61.2594Z" fill="black"/>
<path d="M22.5621 57.057C24.6839 58.6741 25.1783 59.1736 24.7457 59.7247C24.3131 60.2757 22.0574 59.1067 21.3931 57.6904C20.7287 56.2742 21.3776 55.4502 21.3776 55.4502L22.5621 57.057Z" fill="white"/>
<path d="M24.3699 60.1108C24.3235 60.1108 24.272 60.1056 24.2154 60.1005C23.2523 59.9923 21.7125 58.9623 21.1666 57.7984C20.4456 56.2637 21.1511 55.3367 21.182 55.3007C21.2644 55.1925 21.4241 55.1771 21.5271 55.2595C21.6352 55.3419 21.6507 55.5015 21.5683 55.6045C21.5477 55.6303 21.0275 56.341 21.6146 57.5873C22.109 58.6379 23.5459 59.5237 24.272 59.6112C24.4265 59.6318 24.5244 59.6061 24.5501 59.5752C24.6377 59.4619 24.648 59.3898 24.6377 59.3383C24.5862 58.9469 23.6437 58.195 22.4129 57.2577C22.3047 57.1753 22.2841 57.0208 22.3665 56.9126C22.4489 56.8045 22.6034 56.7839 22.7116 56.8663C24.4368 58.1847 25.06 58.746 25.1269 59.2765C25.1527 59.4876 25.0909 59.6885 24.9364 59.8842C24.8488 59.9872 24.684 60.1108 24.3699 60.1108Z" fill="black"/>
<path d="M22.1449 55.0021C24.0607 56.8561 24.9877 57.7573 24.4933 58.2517C23.9989 58.7461 21.8977 57.3247 21.4033 55.8415C20.9089 54.3583 21.6505 53.6167 21.6505 53.6167L22.1449 55.0021Z" fill="white"/>
<path d="M24.2049 58.5967C24.1225 58.5967 24.0298 58.5864 23.9268 58.5607C22.9843 58.3392 21.5732 57.1341 21.1715 55.9136C20.6359 54.3016 21.4445 53.4673 21.4805 53.4364C21.5784 53.3386 21.7329 53.3386 21.8307 53.4364C21.9286 53.5343 21.9286 53.6888 21.8307 53.7866C21.805 53.8124 21.2076 54.4561 21.6453 55.7591C22.011 56.8612 23.3345 57.9118 24.0452 58.0766C24.1997 58.1126 24.2976 58.1023 24.3233 58.0714C24.4263 57.9684 24.4418 57.9015 24.4418 57.8448C24.4366 57.4483 23.5869 56.5934 22.4745 55.517C22.3766 55.4243 22.3715 55.2647 22.4693 55.1668C22.562 55.069 22.7217 55.0638 22.8195 55.1617C24.38 56.6706 24.931 57.3041 24.9362 57.8397C24.9362 58.0508 24.8538 58.2414 24.6735 58.4216C24.586 58.5143 24.4366 58.5967 24.2049 58.5967Z" fill="black"/>
</svg>
